# xmcd CD database file
#
# Track frame offsets:
#	182
#	18152
#	41002
#	60842
#	79347
#	94990
#	115917
#	129260
#	140952
#	153577
#	167365
#	181267
#	195490
#	207685
#	223820
#	236810
#	250202
#	269780
#	282957
#	297967
#	311555
#	324602
#
# Disc length: 4502 seconds
#
# Revision: 0
# Processed by: cddbd v1.5PL3 Copyright (c) Steve Scherf et al.
# Submitted via: CDex 1.51
#
DISCID=52119416
DTITLE=Sidney Bechet - Un ange comme ça
DYEAR=1993
DGENRE=Jazz
TTITLE0=Crazy rythm
TTITLE1=Lonesome road
TTITLE2=Somebody stole my gal
TTITLE3=When you wore a tulip
TTITLE4=Squeeze me
TTITLE5=Chinatown my chinatown
TTITLE6=Pourtant
TTITLE7=Un ange comme ça
TTITLE8=South rampart street parade
TTITLE9=Blues dans le blues
TTITLE10=A moi d'payer
TTITLE11=Trottoirs de Paris
TTITLE12=Les hommes sont généreux
TTITLE13=Le blues de mes rêves - Halle Hallelujah
TTITLE14=I had it but it's all gone (1ère partie)
TTITLE15=I had it but it's all gone (2ème partie)
TTITLE16=Everybody loves saturday night
TTITLE17=Dardanella
TTITLE18=Songe d'automne
TTITLE19=Bonjour Paris
TTITLE20=El Doudou
TTITLE21=Laura
EXTD=YEAR: 1993
EXTT0=
EXTT1=
EXTT2=
EXTT3=
EXTT4=
EXTT5=
EXTT6=
EXTT7=
EXTT8=
EXTT9=
EXTT10=
EXTT11=
EXTT12=
EXTT13=
EXTT14=
EXTT15=
EXTT16=
EXTT17=
EXTT18=
EXTT19=
EXTT20=
EXTT21=
PLAYORDER=
